<?xml version="1.0" encoding="UTF-8" standalone="no"?>
<svg width="68px" height="68px" viewBox="0 0 68 68" version="1.1" xmlns="http://www.w3.org/2000/svg" xmlns:xlink="http://www.w3.org/1999/xlink">
    <!-- Generator: Sketch 39.1 (31720) - http://www.bohemiancoding.com/sketch -->
    <title>Shape</title>
    <desc>Created with Sketch.</desc>
    <defs></defs>
    <g id="Page-1" stroke="none" stroke-width="1" fill="none" fill-rule="evenodd">
        <path d="M30.941,33.786 L2.613,62.114 C1.826,62.901 1.826,64.176 2.613,64.963 C3.006,65.357 3.522,65.553 4.037,65.553 C4.553,65.553 5.068,65.357 5.461,64.963 L34.002,36.422 L62.543,64.963 C62.937,65.357 63.452,65.553 63.967,65.553 C64.482,65.553 64.998,65.357 65.391,64.963 C66.178,64.176 66.178,62.901 65.391,62.114 L37.064,33.786 L65.41,5.438 C66.197,4.651 66.197,3.376 65.41,2.589 C64.623,1.803 63.348,1.803 62.562,2.589 L34.003,31.15 L5.441,2.59 C4.654,1.804 3.38,1.804 2.593,2.59 C1.806,3.377 1.806,4.652 2.593,5.439 L30.941,33.786 L30.941,33.786 Z" id="Shape" stroke="#000000" stroke-width="4" fill="#1D1D1B"></path>
    </g>
</svg>