<?xml version="1.0" encoding="UTF-8" standalone="no"?>
<svg
   xmlns:dc="http://purl.org/dc/elements/1.1/"
   xmlns:cc="http://creativecommons.org/ns#"
   xmlns:rdf="http://www.w3.org/1999/02/22-rdf-syntax-ns#"
   xmlns:svg="http://www.w3.org/2000/svg"
   xmlns="http://www.w3.org/2000/svg"
   xmlns:sodipodi="http://sodipodi.sourceforge.net/DTD/sodipodi-0.dtd"
   xmlns:inkscape="http://www.inkscape.org/namespaces/inkscape"
   version="1.1"
   viewBox="0 0 62.099998 62.099998"
   enable-background="new 0 0 129 129"
   width="246.47441"
   height="246.47441"
   id="svg12"
   sodipodi:docname="menu.svg"
   inkscape:version="0.92.3 (2405546, 2018-03-11)">
  <metadata
     id="metadata18">
    <rdf:RDF>
      <cc:Work
         rdf:about="">
        <dc:format>image/svg+xml</dc:format>
        <dc:type
           rdf:resource="http://purl.org/dc/dcmitype/StillImage" />
        <dc:title></dc:title>
      </cc:Work>
    </rdf:RDF>
  </metadata>
  <defs
     id="defs16" />
  <sodipodi:namedview
     pagecolor="#ffffff"
     bordercolor="#666666"
     borderopacity="1"
     objecttolerance="10"
     gridtolerance="10"
     guidetolerance="10"
     inkscape:pageopacity="0"
     inkscape:pageshadow="2"
     inkscape:window-width="1924"
     inkscape:window-height="992"
     id="namedview14"
     showgrid="false"
     fit-margin-top="0"
     fit-margin-left="0"
     fit-margin-right="0"
     fit-margin-bottom="0"
     inkscape:zoom="1.4746399"
     inkscape:cx="123.03876"
     inkscape:cy="123.43566"
     inkscape:window-x="0"
     inkscape:window-y="0"
     inkscape:window-maximized="0"
     inkscape:current-layer="svg12" />
  <g
     id="g10"
     transform="translate(-33.5,-33.5)">
    <g
       id="g8">
      <path
         d="M 91.4,33.5 H 37.6 c -2.3,0 -4.1,1.8 -4.1,4.1 0,2.3 1.8,4.1 4.1,4.1 h 53.9 c 2.3,0 4.1,-1.8 4.1,-4.1 -0.1,-2.3 -1.9,-4.1 -4.2,-4.1 z"
         id="path2"
         inkscape:connector-curvature="0"
         style="fill:#ffffff" />
      <path
         d="M 91.4,87.4 H 37.6 c -2.3,0 -4.1,1.8 -4.1,4.1 0,2.3 1.8,4.1 4.1,4.1 h 53.9 c 2.3,0 4.1,-1.8 4.1,-4.1 -0.1,-2.3 -1.9,-4.1 -4.2,-4.1 z"
         id="path4"
         inkscape:connector-curvature="0"
         style="fill:#ffffff" />
      <path
         d="M 91.4,60.4 H 37.6 c -2.3,0 -4.1,1.8 -4.1,4.1 0,2.3 1.8,4.1 4.1,4.1 h 53.9 c 2.3,0 4.1,-1.8 4.1,-4.1 -0.1,-2.3 -1.9,-4.1 -4.2,-4.1 z"
         id="path6"
         inkscape:connector-curvature="0"
         style="fill:#ffffff" />
    </g>
  </g>
</svg>
